<svg width="16" height="16" viewBox="0 0 16 16" fill="none" xmlns="http://www.w3.org/2000/svg">
<path d="M14.6741 4.4175V10.4494C14.6741 12.1871 13.2637 13.5975 11.5259 13.5975H5.22965C4.94002 13.5975 4.66298 13.5597 4.39224 13.4842C4.00187 13.3771 3.87594 12.8797 4.16557 12.5901L10.8585 5.89713C10.9971 5.75861 11.2048 5.72713 11.4 5.76491C11.6015 5.80269 11.8219 5.74602 11.9793 5.59491L13.5974 3.97047C14.1893 3.37861 14.6741 3.5738 14.6741 4.4175Z" fill="#47A8FD"/>
<path d="M10.0401 5.45622L3.44784 12.0484C3.14562 12.3507 2.64191 12.2751 2.44043 11.8973C2.20747 11.4692 2.08154 10.9718 2.08154 10.4492V4.41733C2.08154 3.57362 2.56636 3.37844 3.15821 3.97029L4.78265 5.60103C5.02821 5.84029 5.43117 5.84029 5.67673 5.60103L7.9308 3.34066C8.17636 3.09511 8.57932 3.09511 8.82488 3.34066L10.0464 4.56214C10.2856 4.8077 10.2856 5.21066 10.0401 5.45622Z" fill="#47A8FD"/>
</svg>
