<svg width="22" height="22" viewBox="0 0 22 22" fill="none" xmlns="http://www.w3.org/2000/svg">
<path d="M4.69428 16.3201C6.55661 15.2674 8.70815 14.6667 11 14.6667C13.2919 14.6667 15.4434 15.2674 17.3057 16.3201M13.75 9.16667C13.75 10.6854 12.5188 11.9167 11 11.9167C9.48122 11.9167 8.25 10.6854 8.25 9.16667C8.25 7.64788 9.48122 6.41667 11 6.41667C12.5188 6.41667 13.75 7.64788 13.75 9.16667ZM19.25 11C19.25 15.5563 15.5563 19.25 11 19.25C6.44365 19.25 2.75 15.5563 2.75 11C2.75 6.44365 6.44365 2.75 11 2.75C15.5563 2.75 19.25 6.44365 19.25 11Z" stroke="#7BC2FF" stroke-width="1.8" stroke-linecap="round" stroke-linejoin="round"/>
</svg>
